<svg xmlns="http://www.w3.org/2000/svg" width="72" height="72" viewBox="0 0 72 72">
  <rect width="72" height="72" rx="8" fill="#181717"/>
  <path d="M36 14C24 14 14 24 14 36C14 45.6 19.8 53.9 28 56.8C29 57 29.5 56.4 29.5 55.9V52.5C24.5 53.7 23.3 50.1 23.3 50.1C22.4 47.7 21.1 47.1 21.1 47.1C19.2 45.8 21.2 45.8 21.2 45.8C23.3 46 24.4 47.9 24.4 47.9C26.2 51.1 29.2 50.2 29.6 50C29.8 48.7 30.3 47.8 30.9 47.3C26.9 46.8 22.7 45.2 22.7 38.1C22.7 36 23.4 34.2 24.5 32.8C24.3 32.3 23.6 30.3 24.7 27.6C24.7 27.6 26.4 27.1 29.5 29.2C31.1 28.8 32.8 28.5 34.5 28.5C36.2 28.5 37.9 28.8 39.5 29.2C42.6 27.1 44.3 27.6 44.3 27.6C45.4 30.3 44.7 32.3 44.5 32.8C45.6 34.2 46.3 36 46.3 38.1C46.3 45.2 42.1 46.8 38.1 47.3C38.8 48 39.5 49.3 39.5 51.3V55.9C39.5 56.4 40 57 41 56.8C49.2 53.9 55 45.6 55 36C55 24 45 14 36 14Z" fill="white"/>
</svg>
