<svg xmlns="http://www.w3.org/2000/svg" width="72" height="72" viewBox="0 0 72 72">
  <rect width="72" height="72" rx="8" fill="#000000"/>
  <path d="M42 18V28C44.7 28 47 30.3 47 33V36C44.7 36 42.5 35.2 40.7 34V48C40.7 53 36.7 57 31.7 57C26.7 57 22.7 53 22.7 48C22.7 43 26.7 39 31.7 39V42.3C28.5 42.3 26 44.8 26 48C26 51.2 28.5 53.7 31.7 53.7C34.9 53.7 37.4 51.2 37.4 48V18H42Z" fill="#FF004F"/>
  <path d="M42 18V28C44.7 28 47 30.3 47 33V36C44.7 36 42.5 35.2 40.7 34V48C40.7 53 36.7 57 31.7 57C26.7 57 22.7 53 22.7 48C22.7 43 26.7 39 31.7 39V42.3C28.5 42.3 26 44.8 26 48C26 51.2 28.5 53.7 31.7 53.7C34.9 53.7 37.4 51.2 37.4 48V18H42Z" fill="#00F7EF" transform="translate(2, 2)"/>
</svg>
